<?xml version="1.0" standalone="no"?>
<!DOCTYPE svg PUBLIC "-//W3C//DTD SVG 20010904//EN"
 "http://www.w3.org/TR/2001/REC-SVG-20010904/DTD/svg10.dtd">
<svg version="1.0" xmlns="http://www.w3.org/2000/svg"
 width="572.000000pt" height="572.000000pt" viewBox="0 0 572.000000 572.000000"
 preserveAspectRatio="xMidYMid meet">

<g transform="translate(0.000000,572.000000) scale(0.100000,-0.100000)"
fill="#000000" stroke="none">
<path d="M472 3912 c-122 -44 -172 -150 -123 -258 31 -67 100 -109 230 -139
88 -21 148 -52 171 -91 30 -48 26 -78 -19 -123 -90 -90 -276 -74 -346 30 -23
36 -30 40 -53 34 -24 -6 -42 -21 -42 -35 1 -19 64 -90 102 -116 175 -118 458
-17 458 163 0 100 -95 179 -265 218 -146 34 -202 96 -163 180 37 82 214 100
311 32 23 -16 33 -17 53 -8 28 12 31 42 7 63 -72 63 -220 86 -321 50z"/>
<path d="M2925 3788 c-3 -7 -4 -146 -3 -308 l3 -295 22 -3 c12 -2 33 4 46 13
23 15 27 14 63 -7 50 -30 160 -32 215 -5 156 78 188 279 64 400 -77 75 -227
90 -298 29 -28 -24 -36 -5 -39 93 l-3 90 -33 3 c-20 2 -34 -2 -37 -10z m332
-244 c64 -48 88 -113 67 -183 -31 -105 -135 -149 -234 -98 -118 59 -119 224
-2 287 47 26 131 22 169 -6z"/>
<path d="M1015 3780 c-4 -7 -8 -446 -5 -597 0 -8 14 -13 35 -13 40 0 38 -7 35
121 -3 157 6 204 50 250 34 36 41 39 90 39 47 0 56 -4 90 -37 44 -44 53 -93
50 -252 -3 -128 -5 -121 35 -121 45 0 48 12 43 193 -3 129 -6 146 -28 187 -53
94 -176 137 -271 94 -50 -22 -60 -12 -54 61 2 27 -1 58 -6 67 -10 19 -54 25
-64 8z"/>
<path d="M1768 3639 c-47 -14 -123 -80 -148 -130 -27 -52 -27 -156 0 -208 116
-227 450 -163 468 91 5 74 -14 125 -66 181 -58 62 -167 90 -254 66z m152 -89
c60 -30 85 -73 85 -145 0 -47 -5 -67 -24 -94 -27 -37 -91 -71 -136 -71 -45 0
-109 34 -136 71 -34 48 -34 140 -1 187 49 67 138 90 212 52z"/>
<path d="M2430 3643 c-8 -3 -32 -14 -54 -24 -35 -18 -40 -18 -55 -4 -21 18
-52 20 -69 3 -9 -9 -12 -89 -12 -299 0 -309 1 -314 52 -307 22 3 23 8 26 93 2
49 7 94 12 99 5 5 25 -1 47 -15 52 -33 169 -34 228 -2 120 64 168 204 109 321
-28 57 -89 112 -143 131 -34 11 -114 14 -141 4z m145 -96 c77 -43 106 -142 64
-216 -72 -130 -251 -115 -305 25 -52 137 110 265 241 191z"/>
<path d="M3721 3633 c-160 -57 -208 -276 -86 -398 51 -50 100 -70 180 -70 55
0 78 5 108 22 35 21 40 22 62 7 13 -8 34 -14 47 -12 l23 3 3 217 2 218 -24 6
c-14 3 -34 -1 -48 -10 -22 -14 -27 -14 -73 9 -57 29 -126 32 -194 8z m170 -86
c84 -45 112 -141 64 -223 -55 -94 -190 -111 -261 -32 -34 37 -44 63 -44 116 0
60 29 107 85 139 51 29 101 29 156 0z"/>
<path d="M4841 3624 c-91 -46 -136 -129 -129 -239 7 -119 93 -210 209 -222 76
-7 129 10 186 61 48 44 48 44 29 65 -26 28 -42 27 -82 -9 -64 -56 -154 -52
-216 10 -21 21 -38 47 -38 59 0 21 3 21 189 21 221 0 220 0 201 80 -40 165
-203 246 -349 174z m178 -69 c16 -8 41 -28 55 -46 43 -51 26 -59 -124 -59
-151 0 -167 8 -123 60 47 57 132 77 192 45z"/>
<path d="M4294 3626 c-66 -30 -99 -108 -70 -165 22 -42 49 -57 137 -79 41 -11
85 -24 97 -31 28 -15 29 -54 2 -81 -23 -23 -99 -27 -163 -8 -37 11 -41 10 -59
-12 l-20 -24 26 -23 c50 -43 197 -45 256 -3 18 13 41 43 52 68 19 42 19 46 4
86 -9 22 -27 48 -39 58 -27 19 -120 48 -153 48 -13 0 -35 10 -50 23 -23 20
-25 26 -15 45 7 13 29 26 53 33 37 9 49 8 91 -9 l48 -21 20 20 c24 24 21 36
-15 63 -34 26 -155 33 -202 12z"/>
<path d="M1309 2702 c-95 -61 -158 -168 -166 -282 -6 -89 6 -142 47 -199 45
-62 83 -81 158 -81 78 0 118 18 171 75 66 72 101 174 101 297 0 85 -17 133
-62 173 -49 45 -89 46 -146 5 -51 -37 -86 -91 -100 -153 -14 -68 4 -68 25 0
13 41 32 72 64 106 39 40 51 47 84 47 44 0 73 -26 98 -89 21 -52 21 -101 1
-188 -21 -95 -47 -144 -102 -196 -100 -93 -225 -68 -295 60 -12 22 -17 54 -17
115 0 74 4 92 30 145 28 55 97 132 145 158 10 6 16 16 14 23 -3 9 -19 3 -50
-16z"/>
<path d="M2186 2661 c-39 -40 -58 -115 -65 -246 -4 -65 -12 -120 -20 -135 -23
-41 -59 -73 -76 -66 -22 8 -54 83 -55 126 -1 42 -31 86 -53 77 -16 -6 -44 -61
-73 -140 -14 -38 -21 -47 -38 -45 -14 2 -24 16 -33 48 -7 25 -16 52 -20 60 -3
8 -7 28 -8 43 -2 15 -5 31 -8 34 -12 12 -37 -7 -43 -34 -4 -15 -15 -39 -25
-52 -10 -13 -16 -28 -13 -33 9 -14 34 11 34 34 0 14 6 19 22 16 18 -2 24 -12
29 -43 9 -52 46 -115 67 -115 23 1 47 37 70 104 30 89 72 115 72 44 0 -74 43
-158 81 -158 9 0 29 14 42 30 14 17 33 30 42 30 9 0 28 -13 42 -30 19 -24 33
-30 63 -30 31 0 47 8 88 45 28 25 56 61 62 80 8 25 19 35 39 40 23 5 30 13 35
43 11 69 -31 71 -54 2 -8 -24 -19 -48 -25 -54 -5 -6 -17 -25 -26 -41 -21 -37
-94 -95 -119 -95 -23 0 -70 48 -70 72 0 10 15 48 34 85 41 81 73 171 81 233 5
37 3 50 -15 73 -12 15 -25 27 -29 27 -4 0 -20 -13 -35 -29z m48 -72 c-1 -72
-57 -233 -78 -226 -16 6 -9 127 10 194 21 71 35 94 54 90 11 -2 15 -16 14 -58z"/>
<path d="M3598 2643 c-14 -16 -30 -37 -36 -48 -27 -56 -59 -313 -42 -346 7
-12 7 -33 0 -63 -18 -83 13 -103 40 -25 8 24 35 86 60 137 57 117 73 120 89
18 12 -75 39 -126 66 -126 7 0 27 11 43 25 37 31 55 31 86 0 28 -28 66 -40
100 -31 35 9 83 52 90 81 15 58 26 17 28 -107 2 -96 6 -133 16 -136 10 -3 11
22 6 127 -6 116 -5 131 9 131 9 0 18 -8 21 -18 11 -33 52 -63 86 -64 98 -3
110 165 17 222 -34 21 -102 26 -127 10 -23 -14 -3 -25 24 -12 52 24 146 -55
146 -122 0 -35 -42 -78 -67 -69 -30 11 -44 25 -75 80 -31 56 -52 67 -63 33 -9
-30 -25 -24 -25 9 0 35 -45 87 -83 97 -15 3 -39 3 -54 0 -31 -8 -81 -60 -87
-90 -3 -11 -7 -33 -10 -48 -7 -32 -52 -88 -72 -88 -24 0 -43 43 -55 123 -15
99 -31 114 -70 67 -15 -19 -43 -68 -61 -107 -33 -73 -50 -86 -56 -43 -3 20 23
97 38 110 12 11 77 117 93 153 25 55 23 112 -5 131 -31 22 -40 20 -70 -11z
m62 -23 c14 -25 5 -60 -33 -140 -39 -79 -63 -108 -78 -93 -7 7 -6 28 4 69 8
33 18 75 21 95 6 36 45 89 65 89 6 0 15 -9 21 -20z m369 -215 c41 -35 57 -86
40 -128 -29 -71 -95 -88 -151 -39 -27 25 -31 35 -31 77 0 44 3 52 38 82 46 40
64 41 104 8z"/>
<path d="M2417 2563 c-12 -11 -7 -43 6 -43 19 0 36 20 30 36 -5 15 -25 19 -36
7z"/>
<path d="M3342 2467 c-26 -28 -27 -35 -7 -57 31 -35 15 -86 -47 -151 -48 -50
-121 -62 -176 -29 -52 32 -51 46 6 96 64 56 78 93 51 129 -24 30 -53 32 -96 5
-44 -26 -64 -69 -62 -131 2 -46 -1 -54 -35 -87 l-37 -37 -24 29 c-14 18 -26
50 -30 80 -9 60 -30 106 -50 106 -21 0 -50 -47 -75 -123 -19 -57 -26 -68 -44
-65 -14 2 -24 15 -31 38 -5 19 -13 40 -16 45 -4 6 -10 31 -13 58 -6 37 -11 47
-26 47 -13 0 -22 -9 -26 -27 -11 -41 -75 -143 -101 -160 -31 -20 -51 -4 -59
48 -8 46 -24 42 -24 -5 0 -35 32 -86 55 -86 33 0 125 107 125 145 0 21 27 19
38 -2 6 -10 13 -34 17 -53 9 -42 43 -90 64 -90 27 1 59 63 87 168 2 8 14 12
26 10 19 -2 24 -11 29 -53 7 -62 20 -94 48 -119 19 -17 24 -18 47 -5 15 8 33
24 42 36 18 29 49 29 71 2 18 -23 81 -49 119 -49 54 0 131 60 168 131 8 16 20
29 27 29 17 0 77 -85 77 -109 0 -32 -42 -61 -89 -61 -57 0 -50 -24 7 -28 36
-3 47 1 72 27 17 16 30 40 30 54 0 29 -25 82 -57 120 -26 33 -29 59 -8 77 11
10 12 17 3 34 -22 42 -45 46 -76 13z m-198 -29 c19 -26 9 -49 -42 -95 -20 -18
-37 -33 -38 -33 -20 0 -34 17 -34 43 0 22 10 40 40 69 47 44 54 46 74 16z
m254 -6 c3 -18 -1 -22 -22 -22 -19 0 -26 5 -26 18 0 39 43 43 48 4z"/>
</g>
</svg>
